<mxfile host="Electron" modified="2024-01-19T21:24:18.187Z" agent="Mozilla/5.0 (Macintosh; Intel Mac OS X 10_15_7) AppleWebKit/537.36 (KHTML, like Gecko) draw.io/22.1.18 Chrome/120.0.6099.199 Electron/28.1.2 Safari/537.36" etag="HbZeSVRKyUFl06yXGWK_" version="22.1.18" type="device">
  <diagram name="Page-1" id="I_IvIT508GICdWFmFSxx">
    <mxGraphModel dx="-3075" dy="864" grid="1" gridSize="10" guides="1" tooltips="1" connect="1" arrows="1" fold="1" page="1" pageScale="1" pageWidth="850" pageHeight="1100" math="1" shadow="0">
      <root>
        <mxCell id="0" />
        <mxCell id="1" parent="0" />
        <mxCell id="ZyNOMEaNR9zngOQEl1LI-1" value="&lt;font style=&quot;font-size: 14px;&quot;&gt;$$C$$&lt;/font&gt;" style="ellipse;whiteSpace=wrap;html=1;aspect=fixed;fillColor=#CCCCCC;strokeColor=#666666;strokeWidth=2;fontColor=#333333;" parent="1" vertex="1">
          <mxGeometry x="3560" y="160" width="80" height="80" as="geometry" />
        </mxCell>
        <mxCell id="ZyNOMEaNR9zngOQEl1LI-2" value="Hardware / Software&amp;nbsp;&lt;br&gt;A tangible / non-tangible component&amp;nbsp;" style="text;html=1;align=center;verticalAlign=middle;resizable=0;points=[];autosize=1;strokeColor=none;fillColor=none;" parent="1" vertex="1">
          <mxGeometry x="3650" y="180" width="220" height="40" as="geometry" />
        </mxCell>
        <mxCell id="ZyNOMEaNR9zngOQEl1LI-3" value="&lt;font style=&quot;font-size: 14px;&quot;&gt;$$F$$&lt;/font&gt;" style="ellipse;whiteSpace=wrap;html=1;aspect=fixed;fillColor=#A9C4EB;strokeWidth=2;" parent="1" vertex="1">
          <mxGeometry x="3560" y="260" width="80" height="80" as="geometry" />
        </mxCell>
        <mxCell id="ZyNOMEaNR9zngOQEl1LI-4" value="Functionality&amp;nbsp;" style="text;html=1;align=center;verticalAlign=middle;resizable=0;points=[];autosize=1;strokeColor=none;fillColor=none;" parent="1" vertex="1">
          <mxGeometry x="3715" y="285" width="90" height="30" as="geometry" />
        </mxCell>
        <mxCell id="ZyNOMEaNR9zngOQEl1LI-5" value="&lt;font style=&quot;font-size: 14px;&quot;&gt;$$D$$&lt;/font&gt;" style="ellipse;whiteSpace=wrap;html=1;aspect=fixed;fillColor=#f8cecc;strokeColor=#b85450;strokeWidth=2;" parent="1" vertex="1">
          <mxGeometry x="3560" y="360" width="80" height="80" as="geometry" />
        </mxCell>
        <mxCell id="ZyNOMEaNR9zngOQEl1LI-6" value="Disruption" style="text;html=1;align=center;verticalAlign=middle;resizable=0;points=[];autosize=1;strokeColor=none;fillColor=none;" parent="1" vertex="1">
          <mxGeometry x="3720" y="385" width="80" height="30" as="geometry" />
        </mxCell>
        <mxCell id="ZyNOMEaNR9zngOQEl1LI-7" value="&lt;font style=&quot;font-size: 14px;&quot;&gt;$$T$$&lt;/font&gt;" style="ellipse;whiteSpace=wrap;html=1;aspect=fixed;strokeWidth=2;strokeColor=#b85450;fillColor=#ffffff;dashed=1;" parent="1" vertex="1">
          <mxGeometry x="3575" y="475" width="50" height="50" as="geometry" />
        </mxCell>
        <mxCell id="ZyNOMEaNR9zngOQEl1LI-8" value="Triggers" style="text;html=1;align=center;verticalAlign=middle;resizable=0;points=[];autosize=1;strokeColor=none;fillColor=none;" parent="1" vertex="1">
          <mxGeometry x="3725" y="485" width="70" height="30" as="geometry" />
        </mxCell>
        <mxCell id="ZyNOMEaNR9zngOQEl1LI-9" value="&lt;font style=&quot;font-size: 14px;&quot;&gt;$$V$$&lt;/font&gt;" style="ellipse;whiteSpace=wrap;html=1;aspect=fixed;strokeWidth=2;strokeColor=#d6b656;fillColor=#fff2cc;" parent="1" vertex="1">
          <mxGeometry x="3560" y="560" width="80" height="80" as="geometry" />
        </mxCell>
        <mxCell id="ZyNOMEaNR9zngOQEl1LI-10" value="Variables" style="text;html=1;align=center;verticalAlign=middle;resizable=0;points=[];autosize=1;strokeColor=none;fillColor=none;" parent="1" vertex="1">
          <mxGeometry x="3730" y="585" width="70" height="30" as="geometry" />
        </mxCell>
      </root>
    </mxGraphModel>
  </diagram>
</mxfile>
